<svg xmlns="http://www.w3.org/2000/svg" viewBox="0 0 320 80" width="100%" height="100%">
  <!-- Concept 12: Duo Open Silhouette (No Ring, Direct Pet Head Profile) -->
  <g transform="translate(18, 12)">
    <!-- Forehead brow arch -->
    <path d="M18 20 C24 16 32 16 38 20" stroke="#004E89" stroke-width="3" stroke-linecap="round"/>
    <!-- Left Dog Floppy Ear in Brand Blue -->
    <path d="M18 20 C10 18 6 30 11 40 C14 45 22 41 20 31 C19 25 18 20 18 20 Z" fill="#004E89"/>
    <!-- Right Cat Perky Ear in Brand Orange -->
    <path d="M38 20 L50 8 L46 28 C45 32 40 31 38 20 Z" fill="#FF6B35"/>
    <!-- Central Animal Nose (Inverted Triangle) -->
    <path d="M23 35 C23 33 33 33 33 35 C33 37.5 29.5 41 28 41 C26.5 41 23 37.5 23 35 Z" fill="#1A202C"/>
    <!-- Whiskers / Muzzle hint -->
    <path d="M28 41 C25 44 21 44 19 43" stroke="#1A202C" stroke-width="2" stroke-linecap="round"/>
    <path d="M28 41 C31 44 35 44 37 43" stroke="#1A202C" stroke-width="2" stroke-linecap="round"/>
  </g>
  <!-- Wordmark -->
  <text x="88" y="52" font-family="system-ui, -apple-system, 'Inter', sans-serif" font-size="34" font-weight="800" fill="#004E89" letter-spacing="-0.5">Paw<tspan fill="#FF6B35">enn</tspan></text>
</svg>
