<svg xmlns="http://www.w3.org/2000/svg" viewBox="0 0 48 48" width="100%" height="100%">
  <!-- Favicon 13: Symmetrical Floppy Puppy Ears -->
  <ellipse cx="24" cy="26" rx="19" ry="17" fill="#F7F9FB" stroke="#004E89" stroke-width="2.5"/>
  <!-- Left Blue Ear -->
  <path d="M10 13 C3 15 2 28 8 35 C12 38 16 33 15 24 C14 18 12 13 10 13 Z" fill="#004E89"/>
  <!-- Right Orange Ear -->
  <path d="M38 13 C45 15 46 28 40 35 C36 38 32 33 33 24 C34 18 36 13 38 13 Z" fill="#FF6B35"/>
  <!-- Button Puppy Nose -->
  <path d="M18 28 C18 26 30 26 30 28 C30 30.5 26 34 24 34 C22 34 18 30.5 18 28 Z" fill="#1A202C"/>
  <!-- Smile -->
  <path d="M24 34 V37 C24 39 20 40 18 38" stroke="#1A202C" stroke-width="2" stroke-linecap="round" fill="none"/>
  <path d="M24 37 C24 39 28 40 30 38" stroke="#1A202C" stroke-width="2" stroke-linecap="round" fill="none"/>
</svg>
